<svg xmlns="http://www.w3.org/2000/svg" viewBox="0 0 467.25 454.03"><defs><style>.cls-1{fill:#001c55;}.cls-2{fill:#00b4d8;}.cls-3{fill:none;stroke:#000;stroke-miterlimit:10;}.cls-4{fill:#001233;}</style></defs><title>CoEditAsset 1</title><g id="Layer_2" data-name="Layer 2"><g id="Layer_1-2" data-name="Layer 1"><path class="cls-1" d="M307.25,225.25A84,84,0,1,1,276.2,160,83.85,83.85,0,0,1,307.25,225.25Z"/><path class="cls-2" d="M411.4,204.67l.62-.1A36.23,36.23,0,0,1,453.46,243a228.67,228.67,0,0,1-8.74,48.32,226.93,226.93,0,0,1-402.2,67.93q-5-6.94-9.37-14.13A227,227,0,0,1,306,14.16,36.2,36.2,0,0,1,324.6,66.49l-.33.54a36.06,36.06,0,0,1-43.53,15.64,155,155,0,0,0-46.5-9.49,154,154,0,0,0-138,235.18c1.77,2.83,3.63,5.63,5.6,8.37a154,154,0,0,0,272.23-44,154.86,154.86,0,0,0,6.53-34.52A36.37,36.37,0,0,1,411.4,204.67Z"/><line class="cls-3" x1="434.94" y1="208.78" x2="434.93" y2="208.78"/><path class="cls-1" d="M223.36,452.83A286.47,286.47,0,0,1,98.55,424.57a46.14,46.14,0,0,1-16.87-69.63,45.69,45.69,0,0,1,36.58-18,46.47,46.47,0,0,1,20.17,4.59,195.08,195.08,0,0,0,84.93,19.22,197.28,197.28,0,0,0,92-22.8,45.44,45.44,0,0,1,21.21-5.27,46.1,46.1,0,0,1,21.73,86.78A289.6,289.6,0,0,1,223.36,452.83Z"/><path d="M336.61,333.16A45.6,45.6,0,0,1,358.11,419a286.9,286.9,0,0,1-64.21,24.65,289.82,289.82,0,0,1-70.54,8.68A285.8,285.8,0,0,1,98.77,424.11,45.56,45.56,0,1,1,138.21,342a195.61,195.61,0,0,0,85.15,19.26,197.82,197.82,0,0,0,92.28-22.86,44.91,44.91,0,0,1,21-5.21m0-1a45.68,45.68,0,0,0-21.44,5.33,196.75,196.75,0,0,1-176.53,3.57,47.14,47.14,0,0,0-20.38-4.64,46.4,46.4,0,0,0-37,18.22h0a46.62,46.62,0,0,0,17,70.38,290.12,290.12,0,0,0,260.24-5.14,46.54,46.54,0,0,0,14-70.77h0a46.67,46.67,0,0,0-35.94-16.95Z"/><path class="cls-4" d="M467.25,111.25h0A20.2,20.2,0,0,1,447,131.45H436.66a20.2,20.2,0,0,0-20.2,20.21V162a20.21,20.21,0,0,1-20.21,20.21h0A20.21,20.21,0,0,1,376,162V151.66a20.2,20.2,0,0,0-20.2-20.21H345.46a20.2,20.2,0,0,1-20.21-20.2h0A20.21,20.21,0,0,1,345.46,91h10.38A20.2,20.2,0,0,0,376,70.84V60.45a20.21,20.21,0,0,1,20.21-20.2h0a20.21,20.21,0,0,1,20.21,20.2V70.84A20.2,20.2,0,0,0,436.66,91H447A20.21,20.21,0,0,1,467.25,111.25Z"/></g></g></svg>